<svg width="29" height="29" viewBox="0 0 29 29" fill="none" xmlns="http://www.w3.org/2000/svg">
<rect width="1" height="1" transform="matrix(-1 0 0 1 28 11)" fill="black"/>
<rect width="1" height="1" transform="matrix(-1 0 0 1 27 10)" fill="black"/>
<rect width="1" height="1" transform="matrix(-1 0 0 1 26 9)" fill="black"/>
<rect width="1" height="1" transform="matrix(-1 0 0 1 23 9)" fill="black"/>
<rect width="1" height="1" transform="matrix(-1 0 0 1 22 8)" fill="black"/>
<rect width="1" height="1" transform="matrix(-1 0 0 1 21 8)" fill="black"/>
<rect width="1" height="1" transform="matrix(-1 0 0 1 20 9)" fill="black"/>
<rect width="1" height="1" transform="matrix(-1 0 0 1 26 8)" fill="black"/>
<rect width="1" height="1" transform="matrix(-1 0 0 1 25 7)" fill="black"/>
<rect width="1" height="1" transform="matrix(-1 0 0 1 25 6)" fill="black"/>
<rect width="1" height="1" transform="matrix(-1 0 0 1 25 5)" fill="black"/>
<rect width="1" height="1" transform="matrix(-1 0 0 1 24 4)" fill="black"/>
<rect width="1" height="1" transform="matrix(-1 0 0 1 23 3)" fill="black"/>
<rect width="1" height="1" transform="matrix(-1 0 0 1 22 4)" fill="black"/>
<rect width="1" height="1" transform="matrix(-1 0 0 1 21 3)" fill="black"/>
<rect width="1" height="1" transform="matrix(-1 0 0 1 21 2)" fill="black"/>
<rect width="1" height="1" transform="matrix(-1 0 0 1 20 2)" fill="black"/>
<rect width="1" height="1" transform="matrix(-1 0 0 1 19 3)" fill="black"/>
<rect width="1" height="1" transform="matrix(-1 0 0 1 18 4)" fill="black"/>
<rect width="1" height="1" transform="matrix(-1 0 0 1 17 4)" fill="black"/>
<rect width="1" height="1" transform="matrix(-1 0 0 1 16 5)" fill="black"/>
<rect width="1" height="1" transform="matrix(-1 0 0 1 16 6)" fill="black"/>
<rect width="1" height="1" transform="matrix(-1 0 0 1 16 7)" fill="black"/>
<rect width="1" height="1" transform="matrix(-1 0 0 1 16 8)" fill="black"/>
<rect width="1" height="1" transform="matrix(-1 0 0 1 15 8)" fill="black"/>
<rect width="1" height="1" transform="matrix(-1 0 0 1 15 9)" fill="black"/>
<rect width="1" height="1" transform="matrix(-1 0 0 1 15 10)" fill="black"/>
<rect width="1" height="1" transform="matrix(-1 0 0 1 15 11)" fill="black"/>
<rect width="1" height="1" transform="matrix(-1 0 0 1 14 11)" fill="black"/>
<rect width="1" height="1" transform="matrix(-1 0 0 1 13 11)" fill="black"/>
<rect width="1" height="1" transform="matrix(-1 0 0 1 12 11)" fill="black"/>
<rect width="1" height="1" transform="matrix(-1 0 0 1 11 11)" fill="black"/>
<rect width="1" height="1" transform="matrix(-1 0 0 1 11 12)" fill="black"/>
<rect width="1" height="1" transform="matrix(-1 0 0 1 10 12)" fill="black"/>
<rect width="1" height="1" transform="matrix(-1 0 0 1 9 11)" fill="black"/>
<rect width="1" height="1" transform="matrix(-1 0 0 1 8 10)" fill="black"/>
<rect width="1" height="1" transform="matrix(-1 0 0 1 7 9)" fill="black"/>
<rect width="1" height="1" transform="matrix(-1 0 0 1 6 9)" fill="black"/>
<rect width="1" height="1" transform="matrix(-1 0 0 1 5 10)" fill="black"/>
<rect width="1" height="1" transform="matrix(-1 0 0 1 4 11)" fill="black"/>
<rect width="1" height="1" transform="matrix(-1 0 0 1 4 12)" fill="black"/>
<rect width="1" height="1" transform="matrix(-1 0 0 1 4 13)" fill="black"/>
<rect width="1" height="1" transform="matrix(-1 0 0 1 3 14)" fill="black"/>
<rect width="1" height="1" transform="matrix(-1 0 0 1 2 15)" fill="black"/>
<rect width="1" height="1" transform="matrix(-1 0 0 1 2 16)" fill="black"/>
<rect width="1" height="1" transform="matrix(-1 0 0 1 3 17)" fill="black"/>
<rect width="1" height="1" transform="matrix(-1 0 0 1 4 18)" fill="black"/>
<rect width="1" height="1" transform="matrix(-1 0 0 1 3 19)" fill="black"/>
<rect width="1" height="1" transform="matrix(-1 0 0 1 4 20)" fill="black"/>
<rect width="1" height="1" transform="matrix(-1 0 0 1 5 21)" fill="black"/>
<rect width="1" height="1" transform="matrix(-1 0 0 1 6 21)" fill="black"/>
<rect width="1" height="1" transform="matrix(-1 0 0 1 7 21)" fill="black"/>
<rect width="1" height="1" transform="matrix(-1 0 0 1 8 22)" fill="black"/>
<rect width="1" height="1" transform="matrix(-1 0 0 1 9 22)" fill="black"/>
<rect width="1" height="1" transform="matrix(-1 0 0 1 10 22)" fill="black"/>
<rect width="1" height="1" transform="matrix(-1 0 0 1 11 22)" fill="black"/>
<rect width="1" height="1" transform="matrix(-1 0 0 1 17 18)" fill="black"/>
<rect width="1" height="1" transform="matrix(-1 0 0 1 16 19)" fill="black"/>
<rect width="1" height="1" transform="matrix(-1 0 0 1 15 20)" fill="black"/>
<rect width="1" height="1" transform="matrix(-1 0 0 1 14 20)" fill="black"/>
<rect width="1" height="1" transform="matrix(-1 0 0 1 13 20)" fill="black"/>
<rect width="1" height="1" transform="matrix(-1 0 0 1 12 20)" fill="black"/>
<rect width="1" height="1" transform="matrix(-1 0 0 1 11 20)" fill="black"/>
<rect width="1" height="1" transform="matrix(-1 0 0 1 10 20)" fill="black"/>
<rect width="1" height="1" transform="matrix(-1 0 0 1 9 19)" fill="black"/>
<rect width="1" height="1" transform="matrix(-1 0 0 1 10 18)" fill="black"/>
<rect width="1" height="1" transform="matrix(-1 0 0 1 11 18)" fill="black"/>
<rect width="1" height="1" transform="matrix(-1 0 0 1 12 17)" fill="black"/>
<rect width="1" height="1" transform="matrix(-1 0 0 1 13 18)" fill="black"/>
<rect width="1" height="1" transform="matrix(-1 0 0 1 8 18)" fill="black"/>
<rect width="1" height="1" transform="matrix(-1 0 0 1 9 17)" fill="black"/>
<rect width="1" height="1" transform="matrix(-1 0 0 1 11 23)" fill="black"/>
<rect width="1" height="1" transform="matrix(-1 0 0 1 12 23)" fill="black"/>
<rect width="1" height="1" transform="matrix(-1 0 0 1 13 23)" fill="black"/>
<rect width="1" height="1" transform="matrix(-1 0 0 1 14 23)" fill="black"/>
<rect width="1" height="1" transform="matrix(-1 0 0 1 15 23)" fill="black"/>
<rect width="1" height="1" transform="matrix(-1 0 0 1 16 23)" fill="black"/>
<rect width="1" height="1" transform="matrix(-1 0 0 1 17 23)" fill="black"/>
<rect width="1" height="1" transform="matrix(-1 0 0 1 18 23)" fill="black"/>
<rect width="1" height="1" transform="matrix(-1 0 0 1 19 23)" fill="black"/>
<rect width="1" height="1" transform="matrix(-1 0 0 1 20 22)" fill="black"/>
<rect width="1" height="1" transform="matrix(-1 0 0 1 21 21)" fill="black"/>
<rect width="1" height="1" transform="matrix(-1 0 0 1 23 20)" fill="black"/>
<rect width="1" height="1" transform="matrix(-1 0 0 1 23 19)" fill="black"/>
<rect width="1" height="1" transform="matrix(-1 0 0 1 24 18)" fill="black"/>
<rect width="1" height="1" transform="matrix(-1 0 0 1 24 17)" fill="black"/>
<rect width="1" height="1" transform="matrix(-1 0 0 1 24 16)" fill="black"/>
<rect width="1" height="1" transform="matrix(-1 0 0 1 25 15)" fill="black"/>
<rect width="1" height="1" transform="matrix(-1 0 0 1 25 14)" fill="black"/>
<rect width="1" height="1" transform="matrix(-1 0 0 1 25 13)" fill="black"/>
<rect width="1" height="1" transform="matrix(-1 0 0 1 26 13)" fill="black"/>
<rect width="1" height="1" transform="matrix(-1 0 0 1 27 12)" fill="black"/>
<rect width="1" height="1" transform="matrix(-1 0 0 1 22 20)" fill="black"/>
<rect width="1" height="1" transform="matrix(-1 0 0 1 24 5)" fill="#5B5B5B"/>
<rect width="1" height="1" transform="matrix(-1 0 0 1 23 5)" fill="#5B5B5B"/>
<rect width="1" height="1" transform="matrix(-1 0 0 1 22 5)" fill="#5B5B5B"/>
<rect width="1" height="1" transform="matrix(-1 0 0 1 21 5)" fill="#5B5B5B"/>
<rect width="1" height="1" transform="matrix(-1 0 0 1 20 5)" fill="#5B5B5B"/>
<rect width="1" height="1" transform="matrix(-1 0 0 1 19 5)" fill="#5B5B5B"/>
<rect width="1" height="1" transform="matrix(-1 0 0 1 23 4)" fill="#5B5B5B"/>
<rect width="1" height="1" transform="matrix(-1 0 0 1 21 4)" fill="#5B5B5B"/>
<rect width="1" height="1" transform="matrix(-1 0 0 1 20 4)" fill="#5B5B5B"/>
<rect width="1" height="1" transform="matrix(-1 0 0 1 19 4)" fill="#5B5B5B"/>
<rect width="1" height="1" transform="matrix(-1 0 0 1 18 5)" fill="#5B5B5B"/>
<rect width="1" height="1" transform="matrix(-1 0 0 1 17 5)" fill="#5B5B5B"/>
<rect width="1" height="1" transform="matrix(-1 0 0 1 17 6)" fill="#5B5B5B"/>
<rect width="1" height="1" transform="matrix(-1 0 0 1 20 3)" fill="#5B5B5B"/>
<rect width="1" height="1" transform="matrix(-1 0 0 1 9 13)" fill="#9A9A9A"/>
<rect width="1" height="1" transform="matrix(-1 0 0 1 9 12)" fill="#9A9A9A"/>
<rect width="1" height="1" transform="matrix(-1 0 0 1 8 11)" fill="#9A9A9A"/>
<rect width="1" height="1" transform="matrix(-1 0 0 1 7 10)" fill="#9A9A9A"/>
<rect width="1" height="1" transform="matrix(-1 0 0 1 6 10)" fill="#9A9A9A"/>
<rect width="1" height="1" transform="matrix(-1 0 0 1 5 11)" fill="#9A9A9A"/>
<rect width="1" height="1" transform="matrix(-1 0 0 1 5 12)" fill="#9A9A9A"/>
<rect width="1" height="1" transform="matrix(-1 0 0 1 5 13)" fill="#9A9A9A"/>
<rect width="1" height="1" transform="matrix(-1 0 0 1 5 14)" fill="#9A9A9A"/>
<rect width="1" height="1" transform="matrix(-1 0 0 1 4 14)" fill="#9A9A9A"/>
<rect width="1" height="1" transform="matrix(-1 0 0 1 3 15)" fill="#9A9A9A"/>
<rect width="1" height="1" transform="matrix(-1 0 0 1 3 16)" fill="#9A9A9A"/>
<rect width="1" height="1" transform="matrix(-1 0 0 1 4 17)" fill="#9A9A9A"/>
<rect width="1" height="1" transform="matrix(-1 0 0 1 5 18)" fill="#9A9A9A"/>
<rect width="1" height="1" transform="matrix(-1 0 0 1 6 15)" fill="#9A9A9A"/>
<rect width="1" height="1" transform="matrix(-1 0 0 1 12 12)" fill="#9A9A9A"/>
<rect width="1" height="1" transform="matrix(-1 0 0 1 13 12)" fill="#9A9A9A"/>
<rect width="1" height="1" transform="matrix(-1 0 0 1 14 12)" fill="#9A9A9A"/>
<rect width="1" height="1" transform="matrix(-1 0 0 1 15 12)" fill="#9A9A9A"/>
<rect width="1" height="1" transform="matrix(-1 0 0 1 16 12)" fill="#9A9A9A"/>
<rect width="1" height="1" transform="matrix(-1 0 0 1 16 10)" fill="#9A9A9A"/>
<rect width="1" height="1" transform="matrix(-1 0 0 1 17 10)" fill="#9A9A9A"/>
<rect width="1" height="1" transform="matrix(-1 0 0 1 17 11)" fill="#9A9A9A"/>
<rect width="1" height="1" transform="matrix(-1 0 0 1 18 11)" fill="#9A9A9A"/>
<rect width="1" height="1" transform="matrix(-1 0 0 1 19 11)" fill="#9A9A9A"/>
<rect width="1" height="1" transform="matrix(-1 0 0 1 20 11)" fill="#9A9A9A"/>
<rect width="1" height="1" transform="matrix(-1 0 0 1 20 10)" fill="#9A9A9A"/>
<rect width="1" height="1" transform="matrix(-1 0 0 1 21 11)" fill="#9A9A9A"/>
<rect width="1" height="1" transform="matrix(-1 0 0 1 21 10)" fill="#9A9A9A"/>
<rect width="1" height="1" transform="matrix(-1 0 0 1 21 9)" fill="#9A9A9A"/>
<rect width="1" height="1" transform="matrix(-1 0 0 1 22 11)" fill="#9A9A9A"/>
<rect width="1" height="1" transform="matrix(-1 0 0 1 22 10)" fill="#9A9A9A"/>
<rect width="1" height="1" transform="matrix(-1 0 0 1 22 9)" fill="#9A9A9A"/>
<rect width="1" height="1" transform="matrix(-1 0 0 1 23 11)" fill="#9A9A9A"/>
<rect width="1" height="1" transform="matrix(-1 0 0 1 23 10)" fill="#9A9A9A"/>
<rect width="1" height="1" transform="matrix(-1 0 0 1 24 11)" fill="#9A9A9A"/>
<rect width="1" height="1" transform="matrix(-1 0 0 1 24 10)" fill="#9A9A9A"/>
<rect width="1" height="1" transform="matrix(-1 0 0 1 24 9)" fill="#9A9A9A"/>
<rect width="1" height="1" transform="matrix(-1 0 0 1 24 8)" fill="#9A9A9A"/>
<rect width="1" height="1" transform="matrix(-1 0 0 1 24 7)" fill="#9A9A9A"/>
<rect width="1" height="1" transform="matrix(-1 0 0 1 24 6)" fill="#9A9A9A"/>
<rect width="1" height="1" transform="matrix(-1 0 0 1 23 8)" fill="#9A9A9A"/>
<rect width="1" height="1" transform="matrix(-1 0 0 1 23 7)" fill="#9A9A9A"/>
<rect width="1" height="1" transform="matrix(-1 0 0 1 22 7)" fill="#9A9A9A"/>
<rect width="1" height="1" transform="matrix(-1 0 0 1 21 7)" fill="#9A9A9A"/>
<rect width="1" height="1" transform="matrix(-1 0 0 1 20 7)" fill="#9A9A9A"/>
<rect width="1" height="1" transform="matrix(-1 0 0 1 20 8)" fill="#9A9A9A"/>
<rect width="1" height="1" transform="matrix(-1 0 0 1 19 7)" fill="#9A9A9A"/>
<rect width="1" height="1" transform="matrix(-1 0 0 1 19 8)" fill="#9A9A9A"/>
<rect width="1" height="1" transform="matrix(-1 0 0 1 18 7)" fill="#9A9A9A"/>
<rect width="1" height="1" transform="matrix(-1 0 0 1 18 8)" fill="#9A9A9A"/>
<rect width="1" height="1" transform="matrix(-1 0 0 1 23 6)" fill="#9A9A9A"/>
<rect width="1" height="1" transform="matrix(-1 0 0 1 22 6)" fill="#9A9A9A"/>
<rect width="1" height="1" transform="matrix(-1 0 0 1 21 6)" fill="#9A9A9A"/>
<rect width="1" height="1" transform="matrix(-1 0 0 1 20 6)" fill="#9A9A9A"/>
<rect width="1" height="1" transform="matrix(-1 0 0 1 19 6)" fill="#9A9A9A"/>
<rect width="1" height="1" transform="matrix(-1 0 0 1 18 6)" fill="#9A9A9A"/>
<rect width="1" height="1" transform="matrix(-1 0 0 1 25 10)" fill="#9A9A9A"/>
<rect width="1" height="1" transform="matrix(-1 0 0 1 25 9)" fill="#9A9A9A"/>
<rect width="1" height="1" transform="matrix(-1 0 0 1 25 8)" fill="#9A9A9A"/>
<rect width="1" height="1" transform="matrix(-1 0 0 1 24 12)" fill="#9A9A9A"/>
<rect width="1" height="1" transform="matrix(-1 0 0 1 23 12)" fill="#9A9A9A"/>
<rect width="1" height="1" transform="matrix(-1 0 0 1 23 13)" fill="#9A9A9A"/>
<rect width="1" height="1" transform="matrix(-1 0 0 1 22 12)" fill="#9A9A9A"/>
<rect width="1" height="1" transform="matrix(-1 0 0 1 21 12)" fill="#9A9A9A"/>
<rect width="1" height="1" transform="matrix(-1 0 0 1 20 12)" fill="#9A9A9A"/>
<rect width="1" height="1" transform="matrix(-1 0 0 1 19 12)" fill="#9A9A9A"/>
<rect width="1" height="1" transform="matrix(-1 0 0 1 18 12)" fill="#9A9A9A"/>
<rect width="1" height="1" transform="matrix(-1 0 0 1 18 10)" fill="#9A9A9A"/>
<rect width="1" height="1" transform="matrix(-1 0 0 1 19 10)" fill="#9A9A9A"/>
<rect width="1" height="1" transform="matrix(-1 0 0 1 16 9)" fill="#9A9A9A"/>
<rect width="1" height="1" transform="matrix(-1 0 0 1 17 9)" fill="#9A9A9A"/>
<rect width="1" height="1" transform="matrix(-1 0 0 1 17 8)" fill="#9A9A9A"/>
<rect width="1" height="1" transform="matrix(-1 0 0 1 17 7)" fill="#9A9A9A"/>
<rect width="1" height="1" transform="matrix(-1 0 0 1 18 9)" fill="#9A9A9A"/>
<rect width="1" height="1" transform="matrix(-1 0 0 1 19 9)" fill="#9A9A9A"/>
<rect width="1" height="1" transform="matrix(-1 0 0 1 11 13)" fill="#9A9A9A"/>
<rect width="1" height="1" transform="matrix(-1 0 0 1 12 13)" fill="#9A9A9A"/>
<rect width="1" height="1" transform="matrix(-1 0 0 1 13 13)" fill="#9A9A9A"/>
<rect width="1" height="1" transform="matrix(-1 0 0 1 14 13)" fill="#9A9A9A"/>
<rect width="1" height="1" transform="matrix(-1 0 0 1 15 13)" fill="#9A9A9A"/>
<rect width="1" height="1" transform="matrix(-1 0 0 1 16 13)" fill="#9A9A9A"/>
<rect width="1" height="1" transform="matrix(-1 0 0 1 17 13)" fill="#9A9A9A"/>
<rect width="1" height="1" transform="matrix(-1 0 0 1 11 14)" fill="#9A9A9A"/>
<rect width="1" height="1" transform="matrix(-1 0 0 1 12 14)" fill="#9A9A9A"/>
<rect width="1" height="1" transform="matrix(-1 0 0 1 13 14)" fill="#9A9A9A"/>
<rect width="1" height="1" transform="matrix(-1 0 0 1 14 14)" fill="#9A9A9A"/>
<rect width="1" height="1" transform="matrix(-1 0 0 1 15 14)" fill="#9A9A9A"/>
<rect width="1" height="1" transform="matrix(-1 0 0 1 16 14)" fill="#9A9A9A"/>
<rect width="1" height="1" transform="matrix(-1 0 0 1 17 14)" fill="#9A9A9A"/>
<rect width="1" height="1" transform="matrix(-1 0 0 1 18 14)" fill="#9A9A9A"/>
<rect width="1" height="1" transform="matrix(-1 0 0 1 19 14)" fill="#9A9A9A"/>
<rect width="1" height="1" transform="matrix(-1 0 0 1 10 15)" fill="#9A9A9A"/>
<rect width="1" height="1" transform="matrix(-1 0 0 1 11 15)" fill="#9A9A9A"/>
<rect width="1" height="1" transform="matrix(-1 0 0 1 12 15)" fill="#9A9A9A"/>
<rect width="1" height="1" transform="matrix(-1 0 0 1 13 15)" fill="#9A9A9A"/>
<rect width="1" height="1" transform="matrix(-1 0 0 1 14 15)" fill="#9A9A9A"/>
<rect width="1" height="1" transform="matrix(-1 0 0 1 15 15)" fill="#9A9A9A"/>
<rect width="1" height="1" transform="matrix(-1 0 0 1 10 16)" fill="#9A9A9A"/>
<rect width="1" height="1" transform="matrix(-1 0 0 1 10 17)" fill="#9A9A9A"/>
<rect width="1" height="1" transform="matrix(-1 0 0 1 11 17)" fill="#9A9A9A"/>
<rect width="1" height="1" transform="matrix(-1 0 0 1 13 17)" fill="#9A9A9A"/>
<rect width="1" height="1" transform="matrix(-1 0 0 1 14 17)" fill="#9A9A9A"/>
<rect width="1" height="1" transform="matrix(-1 0 0 1 15 17)" fill="#9A9A9A"/>
<rect width="1" height="1" transform="matrix(-1 0 0 1 16 17)" fill="#9A9A9A"/>
<rect width="1" height="1" transform="matrix(-1 0 0 1 17 17)" fill="#9A9A9A"/>
<rect width="1" height="1" transform="matrix(-1 0 0 1 19 17)" fill="#9A9A9A"/>
<rect width="1" height="1" transform="matrix(-1 0 0 1 18 18)" fill="#9A9A9A"/>
<rect width="1" height="1" transform="matrix(-1 0 0 1 17 19)" fill="#9A9A9A"/>
<rect width="1" height="1" transform="matrix(-1 0 0 1 16 20)" fill="#9A9A9A"/>
<rect width="1" height="1" transform="matrix(-1 0 0 1 15 21)" fill="#9A9A9A"/>
<rect width="1" height="1" transform="matrix(-1 0 0 1 13 21)" fill="#9A9A9A"/>
<rect width="1" height="1" transform="matrix(-1 0 0 1 15 22)" fill="#9A9A9A"/>
<rect width="1" height="1" transform="matrix(-1 0 0 1 20 17)" fill="#9A9A9A"/>
<rect width="1" height="1" transform="matrix(-1 0 0 1 20 16)" fill="#9A9A9A"/>
<rect width="1" height="1" transform="matrix(-1 0 0 1 20 15)" fill="#9A9A9A"/>
<rect width="1" height="1" transform="matrix(-1 0 0 1 21 14)" fill="#9A9A9A"/>
<rect width="1" height="1" transform="matrix(-1 0 0 1 19 15)" fill="#9A9A9A"/>
<rect width="1" height="1" transform="matrix(-1 0 0 1 18 15)" fill="#9A9A9A"/>
<rect width="1" height="1" transform="matrix(-1 0 0 1 21 16)" fill="#9A9A9A"/>
<rect width="1" height="1" transform="matrix(-1 0 0 1 21 17)" fill="#9A9A9A"/>
<rect width="1" height="1" transform="matrix(-1 0 0 1 22 17)" fill="#9A9A9A"/>
<rect width="1" height="1" transform="matrix(-1 0 0 1 23 17)" fill="#9A9A9A"/>
<rect width="1" height="1" transform="matrix(-1 0 0 1 23 18)" fill="#9A9A9A"/>
<rect width="1" height="1" transform="matrix(-1 0 0 1 22 18)" fill="#9A9A9A"/>
<rect width="1" height="1" transform="matrix(-1 0 0 1 21 18)" fill="#9A9A9A"/>
<rect width="1" height="1" transform="matrix(-1 0 0 1 20 19)" fill="#9A9A9A"/>
<rect width="1" height="1" transform="matrix(-1 0 0 1 19 20)" fill="#9A9A9A"/>
<rect width="1" height="1" transform="matrix(-1 0 0 1 20 20)" fill="#9A9A9A"/>
<rect width="1" height="1" transform="matrix(-1 0 0 1 20 21)" fill="#9A9A9A"/>
<rect width="1" height="1" transform="matrix(-1 0 0 1 19 21)" fill="#9A9A9A"/>
<rect width="1" height="1" transform="matrix(-1 0 0 1 19 22)" fill="#9A9A9A"/>
<rect width="1" height="1" transform="matrix(-1 0 0 1 18 22)" fill="#9A9A9A"/>
<rect width="1" height="1" transform="matrix(-1 0 0 1 17 22)" fill="#9A9A9A"/>
<rect width="1" height="1" transform="matrix(-1 0 0 1 16 22)" fill="#9A9A9A"/>
<rect width="1" height="1" transform="matrix(-1 0 0 1 18 21)" fill="#9A9A9A"/>
<rect width="1" height="1" transform="matrix(-1 0 0 1 17 21)" fill="#9A9A9A"/>
<rect width="1" height="1" transform="matrix(-1 0 0 1 17 20)" fill="#9A9A9A"/>
<rect width="1" height="1" transform="matrix(-1 0 0 1 16 21)" fill="#9A9A9A"/>
<rect width="1" height="1" transform="matrix(-1 0 0 1 18 20)" fill="#9A9A9A"/>
<rect width="1" height="1" transform="matrix(-1 0 0 1 18 19)" fill="#9A9A9A"/>
<rect width="1" height="1" transform="matrix(-1 0 0 1 19 18)" fill="#9A9A9A"/>
<rect width="1" height="1" transform="matrix(-1 0 0 1 16 18)" fill="#9A9A9A"/>
<rect width="1" height="1" transform="matrix(-1 0 0 1 15 18)" fill="#9A9A9A"/>
<rect width="1" height="1" transform="matrix(-1 0 0 1 15 19)" fill="#9A9A9A"/>
<rect width="1" height="1" transform="matrix(-1 0 0 1 14 19)" fill="#9A9A9A"/>
<rect width="1" height="1" transform="matrix(-1 0 0 1 13 19)" fill="#9A9A9A"/>
<rect width="1" height="1" transform="matrix(-1 0 0 1 12 19)" fill="#9A9A9A"/>
<rect width="1" height="1" transform="matrix(-1 0 0 1 12 18)" fill="#9A9A9A"/>
<rect width="1" height="1" transform="matrix(-1 0 0 1 11 19)" fill="#9A9A9A"/>
<rect width="1" height="1" transform="matrix(-1 0 0 1 10 19)" fill="#9A9A9A"/>
<rect width="1" height="1" transform="matrix(-1 0 0 1 9 18)" fill="#9A9A9A"/>
<rect width="1" height="1" transform="matrix(-1 0 0 1 14 18)" fill="#9A9A9A"/>
<rect width="1" height="1" transform="matrix(-1 0 0 1 11 16)" fill="#9A9A9A"/>
<rect width="1" height="1" transform="matrix(-1 0 0 1 12 16)" fill="#9A9A9A"/>
<rect width="1" height="1" transform="matrix(-1 0 0 1 13 16)" fill="#9A9A9A"/>
<rect width="1" height="1" transform="matrix(-1 0 0 1 14 16)" fill="#9A9A9A"/>
<rect width="1" height="1" transform="matrix(-1 0 0 1 15 16)" fill="#9A9A9A"/>
<rect width="1" height="1" transform="matrix(-1 0 0 1 16 16)" fill="#9A9A9A"/>
<rect width="1" height="1" transform="matrix(-1 0 0 1 17 16)" fill="#9A9A9A"/>
<rect width="1" height="1" transform="matrix(-1 0 0 1 18 16)" fill="#9A9A9A"/>
<rect width="1" height="1" transform="matrix(-1 0 0 1 26 10)" fill="white"/>
<rect width="1" height="1" transform="matrix(-1 0 0 1 26 11)" fill="white"/>
<rect width="1" height="1" transform="matrix(-1 0 0 1 25 11)" fill="white"/>
<rect width="1" height="1" transform="matrix(-1 0 0 1 25 12)" fill="white"/>
<rect width="1" height="1" transform="matrix(-1 0 0 1 26 12)" fill="white"/>
<rect width="1" height="1" transform="matrix(-1 0 0 1 27 11)" fill="white"/>
<rect width="1" height="1" transform="matrix(-1 0 0 1 24 13)" fill="#BFBFBF"/>
<rect width="1" height="1" transform="matrix(-1 0 0 1 24 14)" fill="#BFBFBF"/>
<rect width="1" height="1" transform="matrix(-1 0 0 1 23 14)" fill="#BFBFBF"/>
<rect width="1" height="1" transform="matrix(-1 0 0 1 22 14)" fill="#BFBFBF"/>
<rect width="1" height="1" transform="matrix(-1 0 0 1 24 15)" fill="#BFBFBF"/>
<rect width="1" height="1" transform="matrix(-1 0 0 1 23 15)" fill="#BFBFBF"/>
<rect width="1" height="1" transform="matrix(-1 0 0 1 23 16)" fill="#BFBFBF"/>
<rect width="1" height="1" transform="matrix(-1 0 0 1 22 15)" fill="#BFBFBF"/>
<rect width="1" height="1" transform="matrix(-1 0 0 1 21 15)" fill="#BFBFBF"/>
<rect width="1" height="1" transform="matrix(-1 0 0 1 20 14)" fill="#BFBFBF"/>
<rect width="1" height="1" transform="matrix(-1 0 0 1 19 16)" fill="#BFBFBF"/>
<rect width="1" height="1" transform="matrix(-1 0 0 1 22 16)" fill="#BFBFBF"/>
<rect width="1" height="1" transform="matrix(-1 0 0 1 22 19)" fill="#BFBFBF"/>
<rect width="1" height="1" transform="matrix(-1 0 0 1 21 19)" fill="#BFBFBF"/>
<rect width="1" height="1" transform="matrix(-1 0 0 1 20 18)" fill="#BFBFBF"/>
<rect width="1" height="1" transform="matrix(-1 0 0 1 19 19)" fill="#BFBFBF"/>
<rect width="1" height="1" transform="matrix(-1 0 0 1 18 17)" fill="#BFBFBF"/>
<rect width="1" height="1" transform="matrix(-1 0 0 1 17 15)" fill="#BFBFBF"/>
<rect width="1" height="1" transform="matrix(-1 0 0 1 16 15)" fill="#BFBFBF"/>
<rect width="1" height="1" transform="matrix(-1 0 0 1 10 13)" fill="#BFBFBF"/>
<rect width="1" height="1" transform="matrix(-1 0 0 1 10 14)" fill="#BFBFBF"/>
<rect width="1" height="1" transform="matrix(-1 0 0 1 9 14)" fill="#BFBFBF"/>
<rect width="1" height="1" transform="matrix(-1 0 0 1 8 14)" fill="#BFBFBF"/>
<rect width="1" height="1" transform="matrix(-1 0 0 1 9 15)" fill="#BFBFBF"/>
<rect width="1" height="1" transform="matrix(-1 0 0 1 9 16)" fill="#BFBFBF"/>
<rect width="1" height="1" transform="matrix(-1 0 0 1 8 15)" fill="#BFBFBF"/>
<rect width="1" height="1" transform="matrix(-1 0 0 1 8 16)" fill="#BFBFBF"/>
<rect width="1" height="1" transform="matrix(-1 0 0 1 6 16)" fill="#BFBFBF"/>
<rect width="1" height="1" transform="matrix(-1 0 0 1 7 14)" fill="#BFBFBF"/>
<rect width="1" height="1" transform="matrix(-1 0 0 1 8 13)" fill="#BFBFBF"/>
<rect width="1" height="1" transform="matrix(-1 0 0 1 8 12)" fill="#BFBFBF"/>
<rect width="1" height="1" transform="matrix(-1 0 0 1 7 15)" fill="#BFBFBF"/>
<rect width="1" height="1" transform="matrix(-1 0 0 1 7 16)" fill="#BFBFBF"/>
<rect width="1" height="1" transform="matrix(-1 0 0 1 5 16)" fill="#BFBFBF"/>
<rect width="1" height="1" transform="matrix(-1 0 0 1 5 17)" fill="#BFBFBF"/>
<rect width="1" height="1" transform="matrix(-1 0 0 1 6 17)" fill="#BFBFBF"/>
<rect width="1" height="1" transform="matrix(-1 0 0 1 6 18)" fill="#BFBFBF"/>
<rect width="1" height="1" transform="matrix(-1 0 0 1 4 19)" fill="#BFBFBF"/>
<rect width="1" height="1" transform="matrix(-1 0 0 1 5 19)" fill="#BFBFBF"/>
<rect width="1" height="1" transform="matrix(-1 0 0 1 5 20)" fill="#BFBFBF"/>
<rect width="1" height="1" transform="matrix(-1 0 0 1 6 20)" fill="#BFBFBF"/>
<rect width="1" height="1" transform="matrix(-1 0 0 1 7 20)" fill="#BFBFBF"/>
<rect width="1" height="1" transform="matrix(-1 0 0 1 8 20)" fill="#BFBFBF"/>
<rect width="1" height="1" transform="matrix(-1 0 0 1 8 21)" fill="#BFBFBF"/>
<rect width="1" height="1" transform="matrix(-1 0 0 1 9 21)" fill="#BFBFBF"/>
<rect width="1" height="1" transform="matrix(-1 0 0 1 10 21)" fill="#BFBFBF"/>
<rect width="1" height="1" transform="matrix(-1 0 0 1 11 21)" fill="#BFBFBF"/>
<rect width="1" height="1" transform="matrix(-1 0 0 1 12 21)" fill="#BFBFBF"/>
<rect width="1" height="1" transform="matrix(-1 0 0 1 12 22)" fill="#BFBFBF"/>
<rect width="1" height="1" transform="matrix(-1 0 0 1 13 22)" fill="#BFBFBF"/>
<rect width="1" height="1" transform="matrix(-1 0 0 1 14 22)" fill="#BFBFBF"/>
<rect width="1" height="1" transform="matrix(-1 0 0 1 14 21)" fill="#BFBFBF"/>
<rect width="1" height="1" transform="matrix(-1 0 0 1 9 20)" fill="#BFBFBF"/>
<rect width="1" height="1" transform="matrix(-1 0 0 1 6 19)" fill="#BFBFBF"/>
<rect width="1" height="1" transform="matrix(-1 0 0 1 7 19)" fill="#BFBFBF"/>
<rect width="1" height="1" transform="matrix(-1 0 0 1 8 19)" fill="#BFBFBF"/>
<rect width="1" height="1" transform="matrix(-1 0 0 1 7 18)" fill="#BFBFBF"/>
<rect width="1" height="1" transform="matrix(-1 0 0 1 7 17)" fill="#BFBFBF"/>
<rect width="1" height="1" transform="matrix(-1 0 0 1 8 17)" fill="#BFBFBF"/>
<rect width="1" height="1" transform="matrix(-1 0 0 1 4 16)" fill="#BFBFBF"/>
<rect width="1" height="1" transform="matrix(-1 0 0 1 4 15)" fill="#BFBFBF"/>
<rect width="1" height="1" transform="matrix(-1 0 0 1 5 15)" fill="#BFBFBF"/>
<rect width="1" height="1" transform="matrix(-1 0 0 1 7 13)" fill="#BFBFBF"/>
<rect width="1" height="1" transform="matrix(-1 0 0 1 7 12)" fill="#BFBFBF"/>
<rect width="1" height="1" transform="matrix(-1 0 0 1 7 11)" fill="#BFBFBF"/>
<rect width="1" height="1" transform="matrix(-1 0 0 1 6 14)" fill="#BFBFBF"/>
<rect width="1" height="1" transform="matrix(-1 0 0 1 6 13)" fill="#BFBFBF"/>
<rect width="1" height="1" transform="matrix(-1 0 0 1 6 12)" fill="#BFBFBF"/>
<rect width="1" height="1" transform="matrix(-1 0 0 1 6 11)" fill="#BFBFBF"/>
<rect width="1" height="1" transform="matrix(-1 0 0 1 21 20)" fill="#BFBFBF"/>
<rect width="1" height="1" transform="matrix(-1 0 0 1 22 13)" fill="#BFBFBF"/>
<rect width="1" height="1" transform="matrix(-1 0 0 1 21 13)" fill="#BFBFBF"/>
<rect width="1" height="1" transform="matrix(-1 0 0 1 20 13)" fill="#BFBFBF"/>
<rect width="1" height="1" transform="matrix(-1 0 0 1 19 13)" fill="#BFBFBF"/>
<rect width="1" height="1" transform="matrix(-1 0 0 1 18 13)" fill="#BFBFBF"/>
<rect width="1" height="1" transform="matrix(-1 0 0 1 17 12)" fill="#BFBFBF"/>
<rect width="1" height="1" transform="matrix(-1 0 0 1 16 11)" fill="#BFBFBF"/>
<rect width="1" height="1" transform="matrix(-1 0 0 1 19 24)" fill="black"/>
<rect width="1" height="1" transform="matrix(-1 0 0 1 18 25)" fill="black"/>
<rect width="1" height="1" transform="matrix(-1 0 0 1 17 26)" fill="black"/>
<rect width="1" height="1" transform="matrix(-1 0 0 1 16 25)" fill="black"/>
<rect width="1" height="1" transform="matrix(-1 0 0 1 15 25)" fill="black"/>
<rect width="1" height="1" transform="matrix(-1 0 0 1 14 24)" fill="black"/>
<rect width="1" height="1" transform="matrix(-1 0 0 1 13 24)" fill="black"/>
<rect width="1" height="1" transform="matrix(-1 0 0 1 14 25)" fill="black"/>
<rect width="1" height="1" transform="matrix(-1 0 0 1 14 26)" fill="black"/>
<rect width="1" height="1" transform="matrix(-1 0 0 1 13 27)" fill="black"/>
<rect width="1" height="1" transform="matrix(-1 0 0 1 12 27)" fill="black"/>
<rect width="1" height="1" transform="matrix(-1 0 0 1 11 26)" fill="black"/>
<rect width="1" height="1" transform="matrix(-1 0 0 1 10 26)" fill="black"/>
<rect width="1" height="1" transform="matrix(-1 0 0 1 9 25)" fill="black"/>
<rect width="1" height="1" transform="matrix(-1 0 0 1 9 24)" fill="black"/>
<rect width="1" height="1" transform="matrix(-1 0 0 1 10 23)" fill="black"/>
<rect width="1" height="1" transform="matrix(-1 0 0 1 18 24)" fill="#5B5B5B"/>
<rect width="1" height="1" transform="matrix(-1 0 0 1 17 24)" fill="#5B5B5B"/>
<rect width="1" height="1" transform="matrix(-1 0 0 1 17 25)" fill="#5B5B5B"/>
<rect width="1" height="1" transform="matrix(-1 0 0 1 16 24)" fill="#5B5B5B"/>
<rect width="1" height="1" transform="matrix(-1 0 0 1 15 24)" fill="#5B5B5B"/>
<rect width="1" height="1" transform="matrix(-1 0 0 1 12 24)" fill="#5B5B5B"/>
<rect width="1" height="1" transform="matrix(-1 0 0 1 11 24)" fill="#5B5B5B"/>
<rect width="1" height="1" transform="matrix(-1 0 0 1 10 24)" fill="#5B5B5B"/>
<rect width="1" height="1" transform="matrix(-1 0 0 1 10 25)" fill="#5B5B5B"/>
<rect width="1" height="1" transform="matrix(-1 0 0 1 11 25)" fill="#5B5B5B"/>
<rect width="1" height="1" transform="matrix(-1 0 0 1 12 25)" fill="#5B5B5B"/>
<rect width="1" height="1" transform="matrix(-1 0 0 1 13 25)" fill="#5B5B5B"/>
<rect width="1" height="1" transform="matrix(-1 0 0 1 13 26)" fill="#5B5B5B"/>
<rect width="1" height="1" transform="matrix(-1 0 0 1 12 26)" fill="#5B5B5B"/>
</svg>
