<svg width="29" height="29" viewBox="0 0 29 29" fill="none" xmlns="http://www.w3.org/2000/svg">
<rect x="14" y="7" width="1" height="1" fill="black"/>
<rect x="15" y="6" width="1" height="1" fill="black"/>
<rect x="14" y="5" width="1" height="1" fill="black"/>
<rect x="14" y="4" width="1" height="1" fill="black"/>
<rect x="14" y="3" width="1" height="1" fill="black"/>
<rect x="15" y="2" width="1" height="1" fill="black"/>
<rect x="16" y="2" width="1" height="1" fill="black"/>
<rect x="17" y="1" width="1" height="1" fill="black"/>
<rect x="17" width="1" height="1" fill="black"/>
<rect x="18" width="1" height="1" fill="black"/>
<rect x="19" width="1" height="1" fill="black"/>
<rect x="20" y="1" width="1" height="1" fill="black"/>
<rect x="21" width="1" height="1" fill="black"/>
<rect x="22" y="1" width="1" height="1" fill="black"/>
<rect x="23" y="2" width="1" height="1" fill="black"/>
<rect x="23" y="3" width="1" height="1" fill="black"/>
<rect x="24" y="4" width="1" height="1" fill="black"/>
<rect x="22" y="6" width="1" height="1" fill="black"/>
<rect x="21" y="5" width="1" height="1" fill="black"/>
<rect x="20" y="5" width="1" height="1" fill="black"/>
<rect x="19" y="6" width="1" height="1" fill="black"/>
<rect x="25" y="5" width="1" height="1" fill="black"/>
<rect x="26" y="6" width="1" height="1" fill="black"/>
<rect x="27" y="7" width="1" height="1" fill="black"/>
<rect x="26" y="8" width="1" height="1" fill="black"/>
<rect x="25" y="9" width="1" height="1" fill="black"/>
<rect x="24" y="10" width="1" height="1" fill="black"/>
<rect x="23" y="11" width="1" height="1" fill="black"/>
<rect x="22" y="12" width="1" height="1" fill="black"/>
<rect x="23" y="13" width="1" height="1" fill="black"/>
<rect x="23" y="14" width="1" height="1" fill="black"/>
<rect x="23" y="15" width="1" height="1" fill="black"/>
<rect x="23" y="16" width="1" height="1" fill="black"/>
<rect x="23" y="17" width="1" height="1" fill="black"/>
<rect x="23" y="18" width="1" height="1" fill="black"/>
<rect x="22" y="19" width="1" height="1" fill="black"/>
<rect x="21" y="20" width="1" height="1" fill="black"/>
<rect x="20" y="21" width="1" height="1" fill="black"/>
<rect x="19" y="22" width="1" height="1" fill="black"/>
<rect x="19" y="24" width="1" height="1" fill="black"/>
<rect x="20" y="23" width="1" height="1" fill="black"/>
<rect x="18" y="24" width="1" height="1" fill="black"/>
<rect x="18" y="23" width="1" height="1" fill="black"/>
<rect x="17" y="23" width="1" height="1" fill="black"/>
<rect x="16" y="24" width="1" height="1" fill="black"/>
<rect x="15" y="24" width="1" height="1" fill="black"/>
<rect x="14" y="24" width="1" height="1" fill="black"/>
<rect x="13" y="24" width="1" height="1" fill="black"/>
<rect x="12" y="24" width="1" height="1" fill="black"/>
<rect x="11" y="26" width="1" height="1" fill="black"/>
<rect x="10" y="27" width="1" height="1" fill="black"/>
<rect x="9" y="27" width="1" height="1" fill="black"/>
<rect x="9" y="26" width="1" height="1" fill="black"/>
<rect x="8" y="26" width="1" height="1" fill="black"/>
<rect x="9" y="25" width="1" height="1" fill="black"/>
<rect x="11" y="25" width="1" height="1" fill="black"/>
<rect x="10" y="25" width="1" height="1" fill="black"/>
<rect x="9" y="24" width="1" height="1" fill="black"/>
<rect x="8" y="23" width="1" height="1" fill="black"/>
<rect x="7" y="23" width="1" height="1" fill="black"/>
<rect x="6" y="23" width="1" height="1" fill="black"/>
<rect x="5" y="23" width="1" height="1" fill="black"/>
<rect x="4" y="22" width="1" height="1" fill="black"/>
<rect x="3" y="21" width="1" height="1" fill="black"/>
<rect x="4" y="20" width="1" height="1" fill="black"/>
<rect x="3" y="19" width="1" height="1" fill="black"/>
<rect x="2" y="19" width="1" height="1" fill="black"/>
<rect x="2" y="18" width="1" height="1" fill="black"/>
<rect x="3" y="17" width="1" height="1" fill="black"/>
<rect x="4" y="16" width="1" height="1" fill="black"/>
<rect x="3" y="16" width="1" height="1" fill="black"/>
<rect x="2" y="15" width="1" height="1" fill="black"/>
<rect x="2" y="14" width="1" height="1" fill="black"/>
<rect x="3" y="13" width="1" height="1" fill="black"/>
<rect x="4" y="12" width="1" height="1" fill="black"/>
<rect x="5" y="12" width="1" height="1" fill="black"/>
<rect x="6" y="13" width="1" height="1" fill="black"/>
<rect x="7" y="13" width="1" height="1" fill="black"/>
<rect x="8" y="13" width="1" height="1" fill="black"/>
<rect x="9" y="13" width="1" height="1" fill="black"/>
<rect x="10" y="12" width="1" height="1" fill="black"/>
<rect x="11" y="12" width="1" height="1" fill="black"/>
<rect x="16" y="16" width="1" height="1" fill="black"/>
<rect x="15" y="17" width="1" height="1" fill="black"/>
<rect x="14" y="18" width="1" height="1" fill="black"/>
<rect x="13" y="19" width="1" height="1" fill="black"/>
<rect x="12" y="19" width="1" height="1" fill="black"/>
<rect x="11" y="19" width="1" height="1" fill="black"/>
<rect x="10" y="19" width="1" height="1" fill="black"/>
<rect x="9" y="19" width="1" height="1" fill="black"/>
<rect x="8" y="18" width="1" height="1" fill="black"/>
<rect x="7" y="18" width="1" height="1" fill="black"/>
<rect x="6" y="17" width="1" height="1" fill="black"/>
<rect x="7" y="16" width="1" height="1" fill="black"/>
<rect x="8" y="15" width="1" height="1" fill="black"/>
<rect x="9" y="14" width="1" height="1" fill="black"/>
<rect x="10" y="16" width="1" height="1" fill="black"/>
<rect x="11" y="17" width="1" height="1" fill="black"/>
<rect x="9" y="17" width="1" height="1" fill="black"/>
<rect x="12" y="11" width="1" height="1" fill="black"/>
<rect x="13" y="11" width="1" height="1" fill="black"/>
<rect x="14" y="10" width="1" height="1" fill="black"/>
<rect x="14" y="9" width="1" height="1" fill="black"/>
<rect x="14" y="8" width="1" height="1" fill="black"/>
<rect x="25" y="6" width="1" height="1" fill="white"/>
<rect x="26" y="7" width="1" height="1" fill="white"/>
<rect x="25" y="7" width="1" height="1" fill="white"/>
<rect x="25" y="8" width="1" height="1" fill="white"/>
<rect x="22" y="2" width="1" height="1" fill="#5B5B5B"/>
<rect x="21" y="2" width="1" height="1" fill="#5B5B5B"/>
<rect x="21" y="1" width="1" height="1" fill="#5B5B5B"/>
<rect x="19" y="1" width="1" height="1" fill="#5B5B5B"/>
<rect x="20" y="2" width="1" height="1" fill="#5B5B5B"/>
<rect x="19" y="2" width="1" height="1" fill="#5B5B5B"/>
<rect x="18" y="2" width="1" height="1" fill="#5B5B5B"/>
<rect x="17" y="3" width="1" height="1" fill="#5B5B5B"/>
<rect x="17" y="2" width="1" height="1" fill="#5B5B5B"/>
<rect x="18" y="1" width="1" height="1" fill="#5B5B5B"/>
<rect x="16" y="3" width="1" height="1" fill="#5B5B5B"/>
<rect x="15" y="4" width="1" height="1" fill="#5B5B5B"/>
<rect x="15" y="5" width="1" height="1" fill="#5B5B5B"/>
<rect x="15" y="3" width="1" height="1" fill="#5B5B5B"/>
<rect width="1" height="1" transform="matrix(1 0 0 -1 22 11)" fill="#BFBFBF"/>
<rect width="1" height="1" transform="matrix(1 0 0 -1 22 12)" fill="#BFBFBF"/>
<rect width="1" height="1" transform="matrix(1 0 0 -1 21 11)" fill="#BFBFBF"/>
<rect width="1" height="1" transform="matrix(1 0 0 -1 20 12)" fill="#BFBFBF"/>
<rect width="1" height="1" transform="matrix(1 0 0 -1 19 12)" fill="#BFBFBF"/>
<rect width="1" height="1" transform="matrix(1 0 0 -1 19 13)" fill="#BFBFBF"/>
<rect width="1" height="1" transform="matrix(1 0 0 -1 20 14)" fill="#BFBFBF"/>
<rect width="1" height="1" transform="matrix(1 0 0 -1 19 15)" fill="#BFBFBF"/>
<rect width="1" height="1" transform="matrix(1 0 0 -1 18 16)" fill="#BFBFBF"/>
<rect width="1" height="1" transform="matrix(1 0 0 -1 20 17)" fill="#BFBFBF"/>
<rect width="1" height="1" transform="matrix(1 0 0 -1 19 18)" fill="#BFBFBF"/>
<rect width="1" height="1" transform="matrix(1 0 0 -1 21 19)" fill="#BFBFBF"/>
<rect width="1" height="1" transform="matrix(1 0 0 -1 21 14)" fill="#BFBFBF"/>
<rect width="1" height="1" transform="matrix(1 0 0 -1 22 14)" fill="#BFBFBF"/>
<rect width="1" height="1" transform="matrix(1 0 0 -1 18 12)" fill="#BFBFBF"/>
<rect width="1" height="1" transform="matrix(1 0 0 -1 16 11)" fill="#BFBFBF"/>
<rect width="1" height="1" transform="matrix(1 0 0 -1 15 10)" fill="#BFBFBF"/>
<rect width="1" height="1" transform="matrix(1 0 0 -1 15 13)" fill="#BFBFBF"/>
<rect width="1" height="1" transform="matrix(1 0 0 -1 14 14)" fill="#BFBFBF"/>
<rect width="1" height="1" transform="matrix(1 0 0 -1 5 15)" fill="#BFBFBF"/>
<rect width="1" height="1" transform="matrix(1 0 0 -1 5 14)" fill="#BFBFBF"/>
<rect width="1" height="1" transform="matrix(1 0 0 -1 6 15)" fill="#BFBFBF"/>
<rect width="1" height="1" transform="matrix(1 0 0 -1 8 15)" fill="#BFBFBF"/>
<rect width="1" height="1" transform="matrix(1 0 0 -1 4 15)" fill="#BFBFBF"/>
<rect width="1" height="1" transform="matrix(1 0 0 -1 4 16)" fill="#BFBFBF"/>
<rect width="1" height="1" transform="matrix(1 0 0 -1 6 16)" fill="#BFBFBF"/>
<rect width="1" height="1" transform="matrix(1 0 0 -1 5 17)" fill="#BFBFBF"/>
<rect width="1" height="1" transform="matrix(1 0 0 -1 5 18)" fill="#BFBFBF"/>
<rect width="1" height="1" transform="matrix(1 0 0 -1 4 18)" fill="#BFBFBF"/>
<rect width="1" height="1" transform="matrix(1 0 0 -1 4 19)" fill="#BFBFBF"/>
<rect width="1" height="1" transform="matrix(1 0 0 -1 3 19)" fill="#BFBFBF"/>
<rect width="1" height="1" transform="matrix(1 0 0 -1 5 19)" fill="#BFBFBF"/>
<rect width="1" height="1" transform="matrix(1 0 0 -1 5 20)" fill="#BFBFBF"/>
<rect width="1" height="1" transform="matrix(1 0 0 -1 6 20)" fill="#BFBFBF"/>
<rect width="1" height="1" transform="matrix(1 0 0 -1 7 20)" fill="#BFBFBF"/>
</svg>
